PathFileType	4	(X/Y/Z)	C:\Users\°ÂÌØÂü\Desktop\20210112\bx_y_5_501-Unnamed.trc
DataRate	CameraRate	NumFrames	NumMarkers	Units	OrigDataRate	OrigDataStartFrame	OrigNumFrames
50.00	50.00	       4	0	mm	50.00	65	       519
Frame#	Time	
		

65	1.280				-728.66180	-68.68003	855.62164	-727.90686	280.08917	876.00317	-666.53259	-7.03280	806.13007	-721.60822	75.60488	218.45905				-785.78680	250.20583	632.99683	-743.16705	77.85168	571.98706	-712.56042	15.71688	523.83313	-781.11938	245.76782	571.90100	-814.98383	256.29306	495.75928	-722.71747	205.13152	535.62244	-672.97833	214.15559	1056.54907	-716.16431	155.45390	218.83458	-775.05792	224.50414	202.26578	-882.50702	296.02576	144.51955	-676.17096	173.77275	159.69232	-596.20789	225.11653	175.03218	-667.54950	300.17569	158.76680	-629.65533	307.93842	161.07622	-562.70709	263.03152	165.84709	-528.11688	303.87088	146.00523	-381.30048	122.52405	1752.32825	-586.12274	282.25320	1511.45605	-624.92432	-78.20847	159.32437	-563.75018	-42.74764	163.08353	-517.88159	-72.76756	142.22453	-604.02478	18.20163	167.49197	-675.23022	54.95866	159.22893	-797.88965	173.83235	182.82529	-538.10083	-57.91064	1515.93103	-795.52618	55.63905	173.77661	-874.27142	92.36650	1062.24988	-805.59375	-37.60367	481.65518	-771.68744	-6.52451	203.28690	-875.64880	-79.04969	141.18465	-666.44922	-68.01450	161.31294	-767.34320	-27.99441	565.22717							-670.62292	213.19347	824.55792	-743.22461	143.08183	572.36633	-754.73877	-56.97716	703.51990	-759.27545	-31.72674	613.47815	
66	1.300	-771.56030	277.50061	743.82178	-732.36151	-69.76322	855.64465	-730.82703	280.76465	875.90692	-670.45093	-6.99526	805.37903	-721.86438	75.59754	218.76305				-788.06702	250.23221	632.63763	-744.68420	77.24889	572.20465	-713.93140	15.64876	524.14142	-782.85461	245.55373	571.79956	-816.37506	256.47073	495.35077	-724.35071	204.93544	535.77661	-676.05554	213.42902	1055.87097	-716.24707	155.49376	218.89908	-774.92346	224.89842	202.37646	-882.62335	296.02975	144.45049	-676.05591	173.95044	159.69157	-596.13690	224.92134	174.64233	-667.57501	300.08670	158.53833	-629.65533	307.93842	161.07622	-562.75409	262.80045	165.65137	-528.42236	304.18677	146.02072	-370.77545	122.22279	1743.42627	-578.24066	282.34576	1506.20349	-624.87305	-78.27746	159.04185	-563.67340	-42.61853	163.26837	-517.84613	-72.87447	142.55020	-604.00934	18.18430	167.48425	-675.52496	54.78577	159.62891	-798.03064	173.86009	182.65773	-530.93536	-58.07687	1509.71094	-795.51324	55.34190	173.69933	-877.49847	92.16299	1062.59363	-807.47308	-38.07203	481.68436	-772.12518	-6.58740	203.40964	-875.64880	-79.04969	141.18465	-666.49530	-68.11589	161.23692	-769.33881	-28.27988	565.11310							-673.92377	212.60291	824.51959	-745.02911	142.69301	572.08313	-757.10919	-57.03008	703.07458	-763.01898	-31.17248	612.56683	
67	1.320	-774.31610	277.34167	742.97131	-735.72052	-69.80286	855.68127	-733.60919	279.64084	875.21295	-673.86884	-7.91942	806.09766	-722.04907	75.46791	218.73253	-682.87305	-9.86395	1042.07056	-790.27521	249.83601	632.25500	-746.78766	77.03434	572.24805	-716.42291	15.64689	523.81525	-784.74030	245.40747	571.53925	-817.77454	256.09354	494.76782	-726.03662	204.31313	535.42114	-679.04041	213.18840	1054.53418	-716.24707	155.49376	218.89908	-775.00067	224.60112	202.13293	-882.03595	296.44073	144.65364	-676.18341	173.98132	159.77525	-596.06812	224.80064	174.46030	-667.47595	300.11661	158.66823	-629.56744	308.03787	161.33885	-562.66193	262.71085	165.58591	-528.01093	303.95316	146.18767	-360.44647	122.25948	1734.68066	-570.21838	282.06171	1500.54724	-624.84814	-78.20358	159.14766	-563.68408	-42.32853	163.02684	-517.81781	-73.21010	142.87347	-603.86285	18.26235	167.40578	-675.49231	54.68315	159.71823	-797.94501	173.82997	182.71497	-523.57532	-57.78056	1502.82581	-795.62506	55.20114	173.78899	-880.97888	92.08744	1063.14844	-808.85571	-38.10752	481.30396	-772.22607	-7.00280	203.33195	-875.97748	-78.88188	141.21204	-666.49530	-68.11589	161.23692	-771.74963	-28.20556	564.80713							-677.15601	212.04730	824.21820	-746.98077	142.46954	572.22253	-760.77423	-57.67733	703.40515	-765.49139	-31.70787	612.35944	
68	1.340	-776.44507	277.39621	742.56366	-738.94318	-70.20478	856.06915	-736.68695	279.24658	874.99243	-677.40546	-7.44551	805.55786	-722.35400	74.99448	218.86575	-685.90564	-10.47226	1041.78784	-791.93384	249.55934	631.88483	-748.93597	76.95724	571.80194	-718.31622	14.86855	524.11182	-786.24634	244.68274	571.13300	-819.03082	256.32651	494.69473	-727.73260	204.36014	535.55737	-682.39301	212.78430	1053.38794	-716.32800	155.38150	218.79727	-775.08624	224.54828	202.16893	-882.32324	296.27173	144.52002	-675.99951	173.92093	159.52786	-596.02643	224.64896	174.08067	-667.47083	300.29678	158.57822	-629.49243	307.95908	161.36897	-562.52911	262.50354	165.63704	-527.83258	303.82150	146.23627	-350.23566	122.00368	1725.54236	-562.30798	281.86868	1494.68567	-624.89844	-78.38731	158.90263	-563.57117	-41.91467	162.84763	-517.70160	-73.26853	142.68777	-603.88739	18.26984	167.55988	-676.06171	54.69014	160.55867	-798.08795	173.86734	182.61388	-516.04803	-57.97229	1495.87000	-795.79620	54.90506	173.59029	-883.26392	91.64123	1063.15430	-810.36884	-38.11300	480.72253	-772.37616	-7.51831	202.91046	-876.11493	-78.94045	141.06699	-666.65961	-68.18775	161.16530	-774.21564	-28.51996	564.96954										-748.25043	142.20920	571.87946	-764.05286	-58.59880	703.26874	-767.85199	-31.83702	612.07928	
